<mxfile host="app.diagrams.net" modified="2021-04-16T16:08:55.346Z" agent="5.0 (Windows NT 10.0; Win64; x64) AppleWebKit/537.36 (KHTML, like Gecko) Chrome/90.0.4430.72 Safari/537.36" etag="6F4p3v5cbuVMof5wisTo" version="14.6.1" type="github">
  <diagram id="7ZLUcN2gDie3IPvi8qBO" name="Page-1">
    <mxGraphModel dx="2893" dy="3800" grid="1" gridSize="10" guides="1" tooltips="1" connect="1" arrows="1" fold="1" page="1" pageScale="1" pageWidth="850" pageHeight="1100" math="0" shadow="0">
      <root>
        <mxCell id="0" />
        <mxCell id="1" parent="0" />
        <mxCell id="BVzTkKo4KRWVbYDLSp9x-4" value="" style="rounded=1;arcSize=10;fillColor=none;gradientColor=none;strokeWidth=2;" parent="1" vertex="1">
          <mxGeometry x="60" y="-950" width="2040" height="1100" as="geometry" />
        </mxCell>
        <mxCell id="BVzTkKo4KRWVbYDLSp9x-5" value="" style="dashed=0;html=1;shape=mxgraph.aws3.virtual_private_cloud;fillColor=#F58536;gradientColor=none;dashed=0;" parent="1" vertex="1">
          <mxGeometry x="50" y="-936" width="72" height="46" as="geometry" />
        </mxCell>
        <mxCell id="BVzTkKo4KRWVbYDLSp9x-6" value="" style="rounded=1;arcSize=10;dashed=1;strokeColor=#F59D56;fillColor=none;gradientColor=none;dashPattern=8 4;strokeWidth=2;" parent="1" vertex="1">
          <mxGeometry x="831.63" y="-700" width="500" height="800" as="geometry" />
        </mxCell>
        <mxCell id="BVzTkKo4KRWVbYDLSp9x-7" value="" style="rounded=1;arcSize=10;dashed=1;strokeColor=#F59D56;fillColor=none;gradientColor=none;dashPattern=8 4;strokeWidth=2;" parent="1" vertex="1">
          <mxGeometry x="180" y="-710" width="470" height="800" as="geometry" />
        </mxCell>
        <mxCell id="BVzTkKo4KRWVbYDLSp9x-8" value="" style="rounded=1;arcSize=10;dashed=1;strokeColor=#F59D56;fillColor=none;gradientColor=none;dashPattern=8 4;strokeWidth=2;" parent="1" vertex="1">
          <mxGeometry x="1540" y="-700" width="470" height="800" as="geometry" />
        </mxCell>
        <mxCell id="BVzTkKo4KRWVbYDLSp9x-59" style="edgeStyle=orthogonalEdgeStyle;rounded=0;orthogonalLoop=1;jettySize=auto;html=1;exitX=0.5;exitY=1;exitDx=0;exitDy=0;exitPerimeter=0;entryX=0.5;entryY=0;entryDx=0;entryDy=0;" parent="1" source="BVzTkKo4KRWVbYDLSp9x-10" target="BVzTkKo4KRWVbYDLSp9x-58" edge="1">
          <mxGeometry relative="1" as="geometry" />
        </mxCell>
        <mxCell id="BVzTkKo4KRWVbYDLSp9x-10" value="" style="outlineConnect=0;dashed=0;verticalLabelPosition=bottom;verticalAlign=top;align=center;html=1;shape=mxgraph.aws3.users;fillColor=#D2D3D3;gradientColor=none;" parent="1" vertex="1">
          <mxGeometry x="1048.63" y="-1470" width="66" height="63" as="geometry" />
        </mxCell>
        <mxCell id="BVzTkKo4KRWVbYDLSp9x-57" style="edgeStyle=orthogonalEdgeStyle;rounded=0;orthogonalLoop=1;jettySize=auto;html=1;exitX=0.5;exitY=1;exitDx=0;exitDy=0;exitPerimeter=0;entryX=0.5;entryY=0;entryDx=0;entryDy=0;entryPerimeter=0;" parent="1" source="BVzTkKo4KRWVbYDLSp9x-11" target="BVzTkKo4KRWVbYDLSp9x-26" edge="1">
          <mxGeometry relative="1" as="geometry" />
        </mxCell>
        <mxCell id="BVzTkKo4KRWVbYDLSp9x-11" value="" style="outlineConnect=0;dashed=0;verticalLabelPosition=bottom;verticalAlign=top;align=center;html=1;shape=mxgraph.aws3.route_53;fillColor=#F58536;gradientColor=none;" parent="1" vertex="1">
          <mxGeometry x="1047.13" y="-1170" width="70.5" height="85.5" as="geometry" />
        </mxCell>
        <mxCell id="BVzTkKo4KRWVbYDLSp9x-12" value="" style="outlineConnect=0;dashed=0;verticalLabelPosition=bottom;verticalAlign=top;align=center;html=1;shape=mxgraph.aws3.elastic_load_balancing;fillColor=#F58536;gradientColor=none;" parent="1" vertex="1">
          <mxGeometry x="1220" y="-860" width="76.5" height="93" as="geometry" />
        </mxCell>
        <mxCell id="BVzTkKo4KRWVbYDLSp9x-56" style="edgeStyle=orthogonalEdgeStyle;rounded=0;orthogonalLoop=1;jettySize=auto;html=1;exitX=1;exitY=0.5;exitDx=0;exitDy=0;exitPerimeter=0;entryX=-0.019;entryY=0.564;entryDx=0;entryDy=0;entryPerimeter=0;" parent="1" source="BVzTkKo4KRWVbYDLSp9x-13" target="BVzTkKo4KRWVbYDLSp9x-14" edge="1">
          <mxGeometry relative="1" as="geometry" />
        </mxCell>
        <mxCell id="BVzTkKo4KRWVbYDLSp9x-13" value="" style="outlineConnect=0;dashed=0;verticalLabelPosition=bottom;verticalAlign=top;align=center;html=1;shape=mxgraph.aws3.certificate_manager;fillColor=#759C3E;gradientColor=none;" parent="1" vertex="1">
          <mxGeometry x="900" y="-837.5" width="76.5" height="61.5" as="geometry" />
        </mxCell>
        <mxCell id="BVzTkKo4KRWVbYDLSp9x-18" style="edgeStyle=orthogonalEdgeStyle;rounded=0;orthogonalLoop=1;jettySize=auto;html=1;entryX=0;entryY=0.5;entryDx=0;entryDy=0;entryPerimeter=0;" parent="1" source="BVzTkKo4KRWVbYDLSp9x-14" target="BVzTkKo4KRWVbYDLSp9x-12" edge="1">
          <mxGeometry relative="1" as="geometry">
            <mxPoint x="1070" y="-1040" as="targetPoint" />
          </mxGeometry>
        </mxCell>
        <mxCell id="BVzTkKo4KRWVbYDLSp9x-14" value="" style="html=1;verticalLabelPosition=bottom;labelBackgroundColor=#ffffff;verticalAlign=top;shadow=0;dashed=0;strokeWidth=2;shape=mxgraph.ios7.misc.circle;fillColor=none;strokeColor=#009900;" parent="1" vertex="1">
          <mxGeometry x="1047.13" y="-863.5" width="110" height="100" as="geometry" />
        </mxCell>
        <mxCell id="BVzTkKo4KRWVbYDLSp9x-16" value="" style="outlineConnect=0;dashed=0;verticalLabelPosition=bottom;verticalAlign=top;align=center;html=1;shape=mxgraph.aws3.ssl_padlock;fillColor=#D2D3D3;gradientColor=none;strokeColor=#009900;" parent="1" vertex="1">
          <mxGeometry x="1069.5" y="-852.5" width="63" height="78" as="geometry" />
        </mxCell>
        <mxCell id="BVzTkKo4KRWVbYDLSp9x-19" value="" style="html=1;dashed=0;whitespace=wrap;fillColor=none;" parent="1" vertex="1">
          <mxGeometry x="880" y="-873.5" width="430" height="133.5" as="geometry" />
        </mxCell>
        <mxCell id="BVzTkKo4KRWVbYDLSp9x-24" value="&lt;b&gt;&lt;font style=&quot;font-size: 12px&quot;&gt;Encrypted Connection&lt;/font&gt;&lt;/b&gt;" style="text;html=1;strokeColor=none;fillColor=none;align=center;verticalAlign=middle;whiteSpace=wrap;rounded=0;" parent="1" vertex="1">
          <mxGeometry x="1029.13" y="-760" width="146" height="20" as="geometry" />
        </mxCell>
        <mxCell id="BVzTkKo4KRWVbYDLSp9x-26" value="" style="outlineConnect=0;dashed=0;verticalLabelPosition=bottom;verticalAlign=top;align=center;html=1;shape=mxgraph.aws3.internet_gateway;fillColor=#F58536;gradientColor=none;strokeColor=#000000;" parent="1" vertex="1">
          <mxGeometry x="1047.13" y="-990" width="69" height="72" as="geometry" />
        </mxCell>
        <mxCell id="BVzTkKo4KRWVbYDLSp9x-27" value="&lt;div&gt;&lt;b&gt;cdp-igw&lt;/b&gt;&lt;/div&gt;&lt;div&gt;&lt;br&gt;&lt;/div&gt;" style="text;html=1;strokeColor=none;fillColor=none;align=center;verticalAlign=middle;whiteSpace=wrap;rounded=0;" parent="1" vertex="1">
          <mxGeometry x="1050.8100000000002" y="-910" width="58.37" height="10" as="geometry" />
        </mxCell>
        <mxCell id="BVzTkKo4KRWVbYDLSp9x-34" style="edgeStyle=orthogonalEdgeStyle;rounded=0;orthogonalLoop=1;jettySize=auto;html=1;exitX=0.5;exitY=1;exitDx=0;exitDy=0;exitPerimeter=0;entryX=0.5;entryY=0;entryDx=0;entryDy=0;entryPerimeter=0;" parent="1" source="BVzTkKo4KRWVbYDLSp9x-29" target="BVzTkKo4KRWVbYDLSp9x-37" edge="1">
          <mxGeometry relative="1" as="geometry">
            <mxPoint x="745" y="-110" as="targetPoint" />
          </mxGeometry>
        </mxCell>
        <mxCell id="BVzTkKo4KRWVbYDLSp9x-29" value="" style="outlineConnect=0;dashed=0;verticalLabelPosition=bottom;verticalAlign=top;align=center;html=1;shape=mxgraph.aws3.router;fillColor=#F58534;gradientColor=none;strokeColor=#000000;" parent="1" vertex="1">
          <mxGeometry x="708.14" y="-318" width="69" height="72" as="geometry" />
        </mxCell>
        <mxCell id="BVzTkKo4KRWVbYDLSp9x-30" value="" style="outlineConnect=0;dashed=0;verticalLabelPosition=bottom;verticalAlign=top;align=center;html=1;shape=mxgraph.aws3.router;fillColor=#F58536;gradientColor=none;strokeColor=#000000;" parent="1" vertex="1">
          <mxGeometry x="1420" y="-318" width="69" height="72" as="geometry" />
        </mxCell>
        <mxCell id="BVzTkKo4KRWVbYDLSp9x-36" style="edgeStyle=orthogonalEdgeStyle;rounded=0;orthogonalLoop=1;jettySize=auto;html=1;exitX=0.5;exitY=1;exitDx=0;exitDy=0;entryX=0.5;entryY=0.025;entryDx=0;entryDy=0;entryPerimeter=0;" parent="1" source="BVzTkKo4KRWVbYDLSp9x-33" target="BVzTkKo4KRWVbYDLSp9x-38" edge="1">
          <mxGeometry relative="1" as="geometry">
            <mxPoint x="750" y="140" as="targetPoint" />
          </mxGeometry>
        </mxCell>
        <mxCell id="BVzTkKo4KRWVbYDLSp9x-33" value="&lt;b&gt;VPC NAT Gateway&lt;/b&gt;" style="text;html=1;strokeColor=none;fillColor=none;align=center;verticalAlign=middle;whiteSpace=wrap;rounded=0;" parent="1" vertex="1">
          <mxGeometry x="675.13" y="200" width="135" height="20" as="geometry" />
        </mxCell>
        <mxCell id="BVzTkKo4KRWVbYDLSp9x-37" value="" style="outlineConnect=0;dashed=0;verticalLabelPosition=bottom;verticalAlign=top;align=center;html=1;shape=mxgraph.aws3.vpn_gateway;fillColor=#F58534;gradientColor=none;strokeColor=#000000;" parent="1" vertex="1">
          <mxGeometry x="702.88" y="100" width="79.5" height="82" as="geometry" />
        </mxCell>
        <mxCell id="BVzTkKo4KRWVbYDLSp9x-38" value="" style="outlineConnect=0;dashed=0;verticalLabelPosition=bottom;verticalAlign=top;align=center;html=1;shape=mxgraph.aws3.vpn_connection;fillColor=#F58534;gradientColor=none;strokeColor=#000000;" parent="1" vertex="1">
          <mxGeometry x="697.63" y="350" width="90" height="70" as="geometry" />
        </mxCell>
        <mxCell id="BVzTkKo4KRWVbYDLSp9x-41" style="edgeStyle=orthogonalEdgeStyle;rounded=0;orthogonalLoop=1;jettySize=auto;html=1;exitX=0.5;exitY=1;exitDx=0;exitDy=0;entryX=0.5;entryY=0;entryDx=0;entryDy=0;entryPerimeter=0;" parent="1" source="BVzTkKo4KRWVbYDLSp9x-39" target="BVzTkKo4KRWVbYDLSp9x-47" edge="1">
          <mxGeometry relative="1" as="geometry">
            <mxPoint x="750.25" y="360" as="targetPoint" />
          </mxGeometry>
        </mxCell>
        <mxCell id="BVzTkKo4KRWVbYDLSp9x-39" value="&lt;b&gt;VPN Connection&lt;/b&gt;" style="text;html=1;strokeColor=none;fillColor=none;align=center;verticalAlign=middle;whiteSpace=wrap;rounded=0;" parent="1" vertex="1">
          <mxGeometry x="687.63" y="430" width="110" height="20" as="geometry" />
        </mxCell>
        <mxCell id="BVzTkKo4KRWVbYDLSp9x-43" value="&lt;b&gt;Customer Gateway&lt;/b&gt;" style="text;html=1;strokeColor=none;fillColor=none;align=center;verticalAlign=middle;whiteSpace=wrap;rounded=0;" parent="1" vertex="1">
          <mxGeometry x="682.76" y="600" width="119.75" height="20" as="geometry" />
        </mxCell>
        <mxCell id="BVzTkKo4KRWVbYDLSp9x-45" value="" style="rounded=1;arcSize=10;dashed=1;fillColor=none;gradientColor=none;dashPattern=1 1;strokeWidth=2;" parent="1" vertex="1">
          <mxGeometry x="630" y="570" width="210" height="190" as="geometry" />
        </mxCell>
        <mxCell id="BVzTkKo4KRWVbYDLSp9x-46" value="" style="outlineConnect=0;dashed=0;verticalLabelPosition=bottom;verticalAlign=top;align=center;html=1;shape=mxgraph.aws3.corporate_data_center;fillColor=#7D7C7C;gradientColor=none;strokeColor=#000000;" parent="1" vertex="1">
          <mxGeometry x="810.13" y="720" width="46.5" height="63" as="geometry" />
        </mxCell>
        <mxCell id="BVzTkKo4KRWVbYDLSp9x-47" value="" style="outlineConnect=0;dashed=0;verticalLabelPosition=bottom;verticalAlign=top;align=center;html=1;shape=mxgraph.aws3.customer_gateway;fillColor=#F58536;gradientColor=none;strokeColor=#000000;" parent="1" vertex="1">
          <mxGeometry x="708.13" y="530" width="69" height="72" as="geometry" />
        </mxCell>
        <mxCell id="BVzTkKo4KRWVbYDLSp9x-58" value="" style="aspect=fixed;perimeter=ellipsePerimeter;html=1;align=center;shadow=0;dashed=0;spacingTop=3;image;image=img/lib/active_directory/internet_cloud.svg;strokeColor=#000000;fillColor=none;" parent="1" vertex="1">
          <mxGeometry x="1028.26" y="-1330" width="106.75" height="67.25" as="geometry" />
        </mxCell>
        <mxCell id="BVzTkKo4KRWVbYDLSp9x-64" value="" style="endArrow=classic;startArrow=classic;html=1;entryX=0.5;entryY=1;entryDx=0;entryDy=0;exitX=0.5;exitY=0;exitDx=0;exitDy=0;exitPerimeter=0;" parent="1" source="BVzTkKo4KRWVbYDLSp9x-11" target="BVzTkKo4KRWVbYDLSp9x-58" edge="1">
          <mxGeometry width="50" height="50" relative="1" as="geometry">
            <mxPoint x="1050" y="-1190" as="sourcePoint" />
            <mxPoint x="1100" y="-1240" as="targetPoint" />
          </mxGeometry>
        </mxCell>
        <mxCell id="BVzTkKo4KRWVbYDLSp9x-65" value="" style="rounded=1;arcSize=10;dashed=0;fillColor=none;gradientColor=none;strokeWidth=2;" parent="1" vertex="1">
          <mxGeometry x="240" y="-640" width="320" height="270" as="geometry" />
        </mxCell>
        <mxCell id="BVzTkKo4KRWVbYDLSp9x-67" value="" style="rounded=1;arcSize=10;dashed=0;fillColor=none;gradientColor=none;strokeWidth=2;" parent="1" vertex="1">
          <mxGeometry x="240" y="-290" width="320" height="270" as="geometry" />
        </mxCell>
        <mxCell id="BVzTkKo4KRWVbYDLSp9x-68" value="" style="rounded=1;arcSize=10;dashed=0;fillColor=none;gradientColor=none;strokeWidth=2;" parent="1" vertex="1">
          <mxGeometry x="942.13" y="-640" width="320" height="270" as="geometry" />
        </mxCell>
        <mxCell id="BVzTkKo4KRWVbYDLSp9x-69" value="" style="rounded=1;arcSize=10;dashed=0;fillColor=none;gradientColor=none;strokeWidth=2;" parent="1" vertex="1">
          <mxGeometry x="941" y="-290" width="320" height="270" as="geometry" />
        </mxCell>
        <mxCell id="BVzTkKo4KRWVbYDLSp9x-70" value="" style="rounded=1;arcSize=10;dashed=0;fillColor=none;gradientColor=none;strokeWidth=2;" parent="1" vertex="1">
          <mxGeometry x="1630" y="-640" width="320" height="270" as="geometry" />
        </mxCell>
        <mxCell id="BVzTkKo4KRWVbYDLSp9x-71" value="" style="rounded=1;arcSize=10;dashed=0;fillColor=none;gradientColor=none;strokeWidth=2;" parent="1" vertex="1">
          <mxGeometry x="1630" y="-290" width="320" height="270" as="geometry" />
        </mxCell>
        <mxCell id="BVzTkKo4KRWVbYDLSp9x-73" value="" style="outlineConnect=0;dashed=0;verticalLabelPosition=bottom;verticalAlign=top;align=center;html=1;shape=mxgraph.aws3.redis;fillColor=#2E73B8;gradientColor=none;strokeColor=#000000;" parent="1" vertex="1">
          <mxGeometry x="1150" y="-270" width="82.87" height="81" as="geometry" />
        </mxCell>
        <mxCell id="BVzTkKo4KRWVbYDLSp9x-74" value="" style="outlineConnect=0;dashed=0;verticalLabelPosition=bottom;verticalAlign=top;align=center;html=1;shape=mxgraph.aws3.rds;fillColor=#2E73B8;gradientColor=none;strokeColor=#000000;" parent="1" vertex="1">
          <mxGeometry x="450" y="-270" width="72" height="81" as="geometry" />
        </mxCell>
        <mxCell id="BVzTkKo4KRWVbYDLSp9x-75" value="" style="outlineConnect=0;dashed=0;verticalLabelPosition=bottom;verticalAlign=top;align=center;html=1;shape=mxgraph.aws3.rds;fillColor=#2E73B8;gradientColor=none;strokeColor=#000000;" parent="1" vertex="1">
          <mxGeometry x="290" y="-150" width="72" height="81" as="geometry" />
        </mxCell>
        <mxCell id="BVzTkKo4KRWVbYDLSp9x-78" style="edgeStyle=orthogonalEdgeStyle;rounded=0;orthogonalLoop=1;jettySize=auto;html=1;exitX=1;exitY=0.5;exitDx=0;exitDy=0;opacity=40;" parent="1" source="BVzTkKo4KRWVbYDLSp9x-76" target="BVzTkKo4KRWVbYDLSp9x-77" edge="1">
          <mxGeometry relative="1" as="geometry" />
        </mxCell>
        <mxCell id="BVzTkKo4KRWVbYDLSp9x-76" value="" style="shape=image;html=1;verticalAlign=top;verticalLabelPosition=bottom;labelBackgroundColor=#ffffff;imageAspect=0;aspect=fixed;image=https://cdn1.iconfinder.com/data/icons/bnw/128x128/devices/nfs_unmount.png;strokeColor=#000000;fillColor=none;" parent="1" vertex="1">
          <mxGeometry x="437" y="-140" width="98" height="98" as="geometry" />
        </mxCell>
        <mxCell id="BVzTkKo4KRWVbYDLSp9x-77" value="" style="shape=image;html=1;verticalAlign=top;verticalLabelPosition=bottom;labelBackgroundColor=#ffffff;imageAspect=0;aspect=fixed;image=https://cdn1.iconfinder.com/data/icons/bnw/128x128/devices/nfs_unmount.png;strokeColor=#000000;fillColor=none;" parent="1" vertex="1">
          <mxGeometry x="1000" y="-140" width="98" height="98" as="geometry" />
        </mxCell>
        <mxCell id="BVzTkKo4KRWVbYDLSp9x-79" value="" style="outlineConnect=0;dashed=0;verticalLabelPosition=bottom;verticalAlign=top;align=center;html=1;shape=mxgraph.aws3.efs;fillColor=#E05243;gradientColor=none;strokeColor=#000000;" parent="1" vertex="1">
          <mxGeometry x="711.13" y="-750" width="76.5" height="93" as="geometry" />
        </mxCell>
        <mxCell id="BVzTkKo4KRWVbYDLSp9x-81" value="" style="rounded=1;arcSize=10;strokeColor=none;fillColor=#DBDBDB;gradientColor=none;" parent="1" vertex="1">
          <mxGeometry x="260" y="-620" width="280" height="230" as="geometry" />
        </mxCell>
        <mxCell id="BVzTkKo4KRWVbYDLSp9x-82" value="" style="rounded=1;arcSize=10;strokeColor=none;fillColor=#DBDBDB;gradientColor=none;" parent="1" vertex="1">
          <mxGeometry x="962.13" y="-620" width="280" height="230" as="geometry" />
        </mxCell>
        <mxCell id="BVzTkKo4KRWVbYDLSp9x-83" value="" style="outlineConnect=0;dashed=0;verticalLabelPosition=bottom;verticalAlign=top;align=center;html=1;shape=mxgraph.aws3.auto_scaling;fillColor=#F58534;gradientColor=none;strokeColor=#000000;" parent="1" vertex="1">
          <mxGeometry x="609" y="-510" width="79.5" height="76.5" as="geometry" />
        </mxCell>
        <mxCell id="BVzTkKo4KRWVbYDLSp9x-84" value="" style="rounded=1;arcSize=10;dashed=1;fillColor=none;gradientColor=none;dashPattern=8 3 1 3;strokeWidth=2;" parent="1" vertex="1">
          <mxGeometry x="251" y="-632" width="299" height="252" as="geometry" />
        </mxCell>
        <mxCell id="0pEisp5XyKXChR1-HC4D-1" value="" style="outlineConnect=0;dashed=0;verticalLabelPosition=bottom;verticalAlign=top;align=center;html=1;shape=mxgraph.aws3.instance;fillColor=#F58534;gradientColor=none;" vertex="1" parent="1">
          <mxGeometry x="280" y="-600" width="60" height="63" as="geometry" />
        </mxCell>
        <mxCell id="0pEisp5XyKXChR1-HC4D-2" value="" style="outlineConnect=0;dashed=0;verticalLabelPosition=bottom;verticalAlign=top;align=center;html=1;shape=mxgraph.aws3.instance;fillColor=#F58534;gradientColor=none;" vertex="1" parent="1">
          <mxGeometry x="450" y="-600" width="60" height="63" as="geometry" />
        </mxCell>
        <mxCell id="0pEisp5XyKXChR1-HC4D-3" value="&lt;span style=&quot;color: rgb(22 , 25 , 31) ; font-family: &amp;#34;amazon ember&amp;#34; , &amp;#34;helvetica neue&amp;#34; , &amp;#34;roboto&amp;#34; , &amp;#34;arial&amp;#34; , sans-serif ; font-size: 14px ; text-align: left ; background-color: rgb(241 , 250 , 255)&quot;&gt;cdp-staging-myzension&lt;/span&gt;" style="text;html=1;strokeColor=none;fillColor=none;align=center;verticalAlign=middle;whiteSpace=wrap;rounded=0;" vertex="1" parent="1">
          <mxGeometry x="407.5" y="-530" width="145" height="20" as="geometry" />
        </mxCell>
        <mxCell id="0pEisp5XyKXChR1-HC4D-4" value="&lt;span style=&quot;color: rgb(22 , 25 , 31) ; font-family: &amp;#34;amazon ember&amp;#34; , &amp;#34;helvetica neue&amp;#34; , &amp;#34;roboto&amp;#34; , &amp;#34;arial&amp;#34; , sans-serif ; font-size: 14px ; text-align: left ; background-color: rgb(241 , 250 , 255)&quot;&gt;CDP-ADS&lt;/span&gt;" style="text;html=1;strokeColor=none;fillColor=none;align=center;verticalAlign=middle;whiteSpace=wrap;rounded=0;" vertex="1" parent="1">
          <mxGeometry x="275" y="-530" width="70" height="10" as="geometry" />
        </mxCell>
        <mxCell id="0pEisp5XyKXChR1-HC4D-5" value="" style="outlineConnect=0;dashed=0;verticalLabelPosition=bottom;verticalAlign=top;align=center;html=1;shape=mxgraph.aws3.instance;fillColor=#F58534;gradientColor=none;" vertex="1" parent="1">
          <mxGeometry x="370.5" y="-536.5" width="60" height="63" as="geometry" />
        </mxCell>
        <mxCell id="0pEisp5XyKXChR1-HC4D-6" value="&lt;span style=&quot;color: rgb(22 , 25 , 31) ; font-family: &amp;#34;amazon ember&amp;#34; , &amp;#34;helvetica neue&amp;#34; , &amp;#34;roboto&amp;#34; , &amp;#34;arial&amp;#34; , sans-serif ; font-size: 14px ; text-align: left ; background-color: rgb(241 , 250 , 255)&quot;&gt;cdp-d2c-wp-prod&lt;/span&gt;" style="text;html=1;strokeColor=none;fillColor=none;align=center;verticalAlign=middle;whiteSpace=wrap;rounded=0;" vertex="1" parent="1">
          <mxGeometry x="360" y="-470" width="80" height="23.5" as="geometry" />
        </mxCell>
        <mxCell id="0pEisp5XyKXChR1-HC4D-7" value="" style="outlineConnect=0;dashed=0;verticalLabelPosition=bottom;verticalAlign=top;align=center;html=1;shape=mxgraph.aws3.instance;fillColor=#F58534;gradientColor=none;" vertex="1" parent="1">
          <mxGeometry x="285" y="-489.75" width="60" height="63" as="geometry" />
        </mxCell>
        <mxCell id="0pEisp5XyKXChR1-HC4D-8" value="&lt;span style=&quot;color: rgb(22 , 25 , 31) ; font-family: &amp;#34;amazon ember&amp;#34; , &amp;#34;helvetica neue&amp;#34; , &amp;#34;roboto&amp;#34; , &amp;#34;arial&amp;#34; , sans-serif ; font-size: 14px ; text-align: left ; background-color: rgb(241 , 250 , 255)&quot;&gt;cdp-magento-prod-zensiontec&lt;/span&gt;" style="text;html=1;strokeColor=none;fillColor=none;align=center;verticalAlign=middle;whiteSpace=wrap;rounded=0;" vertex="1" parent="1">
          <mxGeometry x="251" y="-420" width="130" height="20" as="geometry" />
        </mxCell>
        <mxCell id="0pEisp5XyKXChR1-HC4D-9" value="" style="outlineConnect=0;dashed=0;verticalLabelPosition=bottom;verticalAlign=top;align=center;html=1;shape=mxgraph.aws3.instance;fillColor=#F58534;gradientColor=none;" vertex="1" parent="1">
          <mxGeometry x="462" y="-489.75" width="60" height="63" as="geometry" />
        </mxCell>
        <mxCell id="0pEisp5XyKXChR1-HC4D-10" value="&lt;span style=&quot;color: rgb(22 , 25 , 31) ; font-family: &amp;#34;amazon ember&amp;#34; , &amp;#34;helvetica neue&amp;#34; , &amp;#34;roboto&amp;#34; , &amp;#34;arial&amp;#34; , sans-serif ; font-size: 14px ; text-align: left ; background-color: rgb(241 , 250 , 255)&quot;&gt;zension-api-server&lt;/span&gt;" style="text;html=1;strokeColor=none;fillColor=none;align=center;verticalAlign=middle;whiteSpace=wrap;rounded=0;" vertex="1" parent="1">
          <mxGeometry x="450" y="-420" width="88" height="20" as="geometry" />
        </mxCell>
      </root>
    </mxGraphModel>
  </diagram>
</mxfile>
